<?xml version="1.0"?>
<!-- Generated by SVGo -->
<svg width="106.202mm" height="87.152mm"
     viewBox="0.000 0.000 106.202 87.152"
     xmlns="http://www.w3.org/2000/svg" 
     xmlns:xlink="http://www.w3.org/1999/xlink">
<polygon points="95.202,5.001 95.672,5.019 96.140,5.074 96.602,5.166 97.056,5.294 97.498,5.457 97.925,5.654 98.336,5.885 98.728,6.146 99.098,6.438 99.444,6.758 99.764,7.104 100.056,7.474 100.317,7.866 100.548,8.277 100.745,8.704 100.908,9.146 101.036,9.600 101.128,10.062 101.183,10.530 101.202,11.001 101.202,76.152 101.183,76.622 101.128,77.090 101.036,77.552 100.908,78.006 100.745,78.448 100.548,78.875 100.317,79.286 100.056,79.678 99.764,80.048 99.444,80.394 99.098,80.714 98.728,81.006 98.336,81.267 97.925,81.498 97.498,81.695 97.056,81.858 96.602,81.986 96.140,82.078 95.672,82.133 95.201,82.152 11.001,82.152 10.530,82.133 10.062,82.078 9.600,81.986 9.146,81.858 8.704,81.695 8.277,81.498 7.866,81.267 7.474,81.006 7.104,80.714 6.758,80.394 6.438,80.048 6.146,79.678 5.885,79.286 5.654,78.875 5.457,78.448 5.294,78.006 5.166,77.552 5.074,77.090 5.019,76.622 5.000,76.151 5.001,11.001 5.019,10.530 5.074,10.062 5.166,9.600 5.294,9.146 5.457,8.704 5.654,8.277 5.885,7.866 6.146,7.474 6.438,7.104 6.758,6.758 7.104,6.438 7.474,6.146 7.866,5.885 8.277,5.654 8.704,5.457 9.146,5.294 9.600,5.166 10.062,5.074 10.530,5.019 11.001,5.000" style="fill:none;stroke-width:0.050000mm;stroke:black"/>
<polygon points="95.583,75.249 95.026,75.533 94.583,75.976 94.299,76.533 94.202,77.152 94.299,77.770 94.583,78.327 95.026,78.770 95.583,79.054 96.202,79.152 96.820,79.054 97.377,78.770 97.820,78.327 98.104,77.770 98.202,77.152 98.104,76.533 97.820,75.976 97.377,75.533 96.820,75.249 96.202,75.152" style="fill:none;stroke-width:0.050000mm;stroke:black"/>
<polygon points="9.382,75.249 8.825,75.533 8.382,75.976 8.097,76.533 8.001,77.152 8.097,77.770 8.382,78.327 8.825,78.770 9.382,79.054 10.001,79.152 10.619,79.054 11.176,78.770 11.619,78.327 11.903,77.770 12.001,77.152 11.903,76.533 11.619,75.976 11.176,75.533 10.619,75.249 10.001,75.152" style="fill:none;stroke-width:0.050000mm;stroke:black"/>
<polygon points="17.526,55.626 17.526,56.626 16.725,56.626 16.725,59.726 17.526,59.726 17.526,65.526 16.725,65.526 16.725,68.626 17.526,68.626 17.526,69.626 31.526,69.626 31.526,68.626 32.324,68.626 32.324,65.526 31.526,65.526 31.526,59.726 32.324,59.726 32.324,56.626 31.526,56.626 31.526,55.626" style="fill:none;stroke-width:0.050000mm;stroke:black"/>
<polygon points="36.576,55.626 36.576,56.626 35.776,56.626 35.776,59.726 36.576,59.726 36.576,65.526 35.776,65.526 35.776,68.626 36.576,68.626 36.576,69.626 50.576,69.626 50.576,68.626 51.376,68.626 51.376,65.526 50.576,65.526 50.576,59.726 51.376,59.726 51.376,56.626 50.576,56.626 50.576,55.626" style="fill:none;stroke-width:0.050000mm;stroke:black"/>
<polygon points="55.626,55.626 55.626,56.626 54.826,56.626 54.826,59.726 55.626,59.726 55.626,65.526 54.826,65.526 54.826,68.626 55.626,68.626 55.626,69.626 69.626,69.626 69.626,68.626 70.426,68.626 70.426,65.526 69.626,65.526 69.626,59.726 70.426,59.726 70.426,56.626 69.626,56.626 69.626,55.626" style="fill:none;stroke-width:0.050000mm;stroke:black"/>
<polygon points="74.676,55.626 74.676,56.626 73.876,56.626 73.876,59.726 74.676,59.726 74.676,65.526 73.876,65.526 73.876,68.626 74.676,68.626 74.676,69.626 88.676,69.626 88.676,68.626 89.476,68.626 89.476,65.526 88.676,65.526 88.676,59.726 89.476,59.726 89.476,56.626 88.676,56.626 88.676,55.626" style="fill:none;stroke-width:0.050000mm;stroke:black"/>
<polygon points="17.526,36.576 17.526,37.576 16.725,37.576 16.725,40.676 17.526,40.676 17.526,46.476 16.725,46.476 16.725,49.576 17.526,49.576 17.526,50.576 31.526,50.576 31.526,49.576 32.324,49.576 32.324,46.476 31.526,46.476 31.526,40.676 32.324,40.676 32.324,37.576 31.526,37.576 31.526,36.576" style="fill:none;stroke-width:0.050000mm;stroke:black"/>
<polygon points="36.576,36.576 36.576,37.576 35.776,37.576 35.776,40.676 36.576,40.676 36.576,46.476 35.776,46.476 35.776,49.576 36.576,49.576 36.576,50.576 50.576,50.576 50.576,49.576 51.376,49.576 51.376,46.476 50.576,46.476 50.576,40.676 51.376,40.676 51.376,37.576 50.576,37.576 50.576,36.576" style="fill:none;stroke-width:0.050000mm;stroke:black"/>
<polygon points="55.626,36.576 55.626,37.576 54.826,37.576 54.826,40.676 55.626,40.676 55.626,46.476 54.826,46.476 54.826,49.576 55.626,49.576 55.626,50.576 69.626,50.576 69.626,49.576 70.426,49.576 70.426,46.476 69.626,46.476 69.626,40.676 70.426,40.676 70.426,37.576 69.626,37.576 69.626,36.576" style="fill:none;stroke-width:0.050000mm;stroke:black"/>
<polygon points="74.676,36.576 74.676,37.576 73.876,37.576 73.876,40.676 74.676,40.676 74.676,46.476 73.876,46.476 73.876,49.576 74.676,49.576 74.676,50.576 88.676,50.576 88.676,49.576 89.476,49.576 89.476,46.476 88.676,46.476 88.676,40.676 89.476,40.676 89.476,37.576 88.676,37.576 88.676,36.576" style="fill:none;stroke-width:0.050000mm;stroke:black"/>
<polygon points="17.526,17.526 17.526,18.526 16.725,18.526 16.725,21.626 17.526,21.626 17.526,27.425 16.725,27.425 16.725,30.526 17.526,30.526 17.526,31.526 31.526,31.526 31.526,30.526 32.324,30.526 32.324,27.425 31.526,27.425 31.526,21.626 32.324,21.626 32.324,18.526 31.526,18.526 31.526,17.526" style="fill:none;stroke-width:0.050000mm;stroke:black"/>
<polygon points="36.576,17.526 36.576,18.526 35.776,18.526 35.776,21.626 36.576,21.626 36.576,27.425 35.776,27.425 35.776,30.526 36.576,30.526 36.576,31.526 50.576,31.526 50.576,30.526 51.376,30.526 51.376,27.425 50.576,27.425 50.576,21.626 51.376,21.626 51.376,18.526 50.576,18.526 50.576,17.526" style="fill:none;stroke-width:0.050000mm;stroke:black"/>
<polygon points="55.626,17.526 55.626,18.526 54.826,18.526 54.826,21.626 55.626,21.626 55.626,27.425 54.826,27.425 54.826,30.526 55.626,30.526 55.626,31.526 69.626,31.526 69.626,30.526 70.426,30.526 70.426,27.425 69.626,27.425 69.626,21.626 70.426,21.626 70.426,18.526 69.626,18.526 69.626,17.526" style="fill:none;stroke-width:0.050000mm;stroke:black"/>
<polygon points="74.676,17.526 74.676,18.526 73.876,18.526 73.876,21.626 74.676,21.626 74.676,27.425 73.876,27.425 73.876,30.526 74.676,30.526 74.676,31.526 88.676,31.526 88.676,30.526 89.476,30.526 89.476,27.425 88.676,27.425 88.676,21.626 89.476,21.626 89.476,18.526 88.676,18.526 88.676,17.526" style="fill:none;stroke-width:0.050000mm;stroke:black"/>
<polygon points="95.583,8.097 95.026,8.382 94.583,8.825 94.299,9.382 94.202,10.001 94.299,10.619 94.583,11.176 95.026,11.619 95.583,11.903 96.202,12.001 96.820,11.903 97.377,11.619 97.820,11.176 98.104,10.619 98.202,10.001 98.104,9.382 97.820,8.825 97.377,8.382 96.820,8.097 96.202,8.001" style="fill:none;stroke-width:0.050000mm;stroke:black"/>
<polygon points="9.382,8.097 8.825,8.382 8.382,8.825 8.097,9.382 8.001,10.001 8.097,10.619 8.382,11.176 8.825,11.619 9.382,11.903 10.001,12.001 10.619,11.903 11.176,11.619 11.619,11.176 11.903,10.619 12.001,10.001 11.903,9.382 11.619,8.825 11.176,8.382 10.619,8.097 10.001,8.001" style="fill:none;stroke-width:0.050000mm;stroke:black"/>
</svg>
